<?xml version="1.0" encoding="UTF-8"?>
<svg width="16px" height="15px" viewBox="0 0 16 15" version="1.1" xmlns="http://www.w3.org/2000/svg" xmlns:xlink="http://www.w3.org/1999/xlink">
    <!-- Generator: Sketch 52.6 (67491) - http://www.bohemiancoding.com/sketch -->
    <title>Artboard</title>
    <desc>Created with Sketch.</desc>
    <g id="Artboard" stroke="none" stroke-width="1" fill="none" fill-rule="evenodd">
        <g id="Group" transform="translate(-3.000000, -3.000000)" fill="#000000" fill-rule="nonzero">
            <g id="Cookies" transform="translate(7.000000, 6.500000)">
                <path d="M7.70745264,3.99463369 C7.71080103,3.99487006 7.71416192,3.99487006 7.7175103,3.99463369 C7.40006014,3.97222918 7.08640343,3.91213721 6.783154,3.81562489 C6.83916657,3.95436299 6.82917784,4.11102271 6.75599832,4.24152504 C6.66875915,4.40142364 6.50186105,4.50164734 6.31970805,4.503521 C6.13755504,4.50539466 5.96863024,4.40862529 5.87811974,4.25055507 C5.78760925,4.09248484 5.78966611,3.89783106 5.88349661,3.74170834 C5.93942589,3.64875102 6.02444189,3.57682144 6.12538325,3.53705502 C4.90392798,2.88782748 4.10045293,1.65796458 3.99668022,0.278692584 L3.99668022,0.291263427 C3.99668022,-0.266379156 2.36381966,0.0594570872 2.57804774,0.575364473 C2.36381966,0.0594570872 0.979383215,0.985676779 1.37565489,1.37989841 C0.979383215,0.985676779 0.0575989811,2.37048081 0.573556768,2.58317947 C0.0575989811,2.37048081 -0.265754681,4.00267903 0.292445264,4.0021762 C-0.265754681,4.0021762 0.0606162781,5.63487725 0.576071182,5.42067009 C0.0606162781,5.63487725 0.986926457,7.01716712 1.38068372,6.62244266 C0.986423575,7.01716712 2.37086002,7.94036981 2.58408234,7.42697659 C2.37086002,7.94238114 4.00372058,8.26570322 4.00321769,7.7075578 C4.00321769,8.26570322 5.63557537,7.93936414 5.42185017,7.42395959 C5.63557537,7.93936414 7.01850316,7.01364728 6.62374014,6.61942565 C7.01850316,7.01364728 7.94179604,5.62884325 7.42835267,5.41564175 C7.94229893,5.62683191 8.26565259,3.99463369 7.70745264,3.99463369 Z M2.11539554,4.24605055 C1.97722144,4.48694631 1.66990737,4.57023255 1.42898519,4.43207697 C1.18806301,4.29392139 1.10476224,3.98663908 1.2429263,3.74573755 C1.38109036,3.50483603 1.68840095,3.42153699 1.92932889,3.55968254 C2.04503299,3.62602605 2.12963925,3.73561273 2.16453385,3.86433294 C2.19942845,3.99305314 2.18175276,4.13036189 2.11539554,4.24605055 Z M3.09853148,6.43890835 C2.92283291,6.5414475 2.70265604,6.52803816 2.54070236,6.40493511 C2.37874868,6.28183206 2.30692507,6.07328812 2.35873365,5.87657863 C2.41054224,5.67986913 2.57577609,5.53374827 2.77736187,5.50637413 C2.97894765,5.47899999 3.17717047,5.57576562 3.2795693,5.75153467 C3.34698371,5.86679414 3.36578295,6.00413129 3.33182197,6.13326471 C3.297861,6.26239812 3.21392877,6.37272306 3.09853148,6.43991402 L3.09853148,6.43890835 Z M2.843067,2.48613257 C2.56533248,2.48613257 2.34018416,2.26100625 2.34018416,1.98329886 C2.34018416,1.70559147 2.56533248,1.48046515 2.843067,1.48046515 C3.12080152,1.48046515 3.34594983,1.70559147 3.34594983,1.98329886 C3.34594983,2.11665865 3.29296768,2.24455637 3.19865886,2.33885598 C3.10435003,2.4331556 2.97643982,2.48613257 2.843067,2.48613257 Z M3.99668022,4.4974674 C3.7189457,4.4974674 3.49379738,4.27234108 3.49379738,3.99463369 C3.49379738,3.7169263 3.7189457,3.49179998 3.99668022,3.49179998 C4.27441474,3.49179998 4.49956305,3.7169263 4.49956305,3.99463369 C4.49956305,4.27234108 4.27441474,4.4974674 3.99668022,4.4974674 Z M5.15632803,6.50880224 C4.87859351,6.50880224 4.6534452,6.28367592 4.6534452,6.00596853 C4.6534452,5.72826114 4.87859351,5.50313482 5.15632803,5.50313482 C5.43406255,5.50313482 5.65921086,5.72826114 5.65921086,6.00596853 C5.65921086,6.28367592 5.43406255,6.50880224 5.15632803,6.50880224 Z" id="Shape"></path>
            </g>
            <path d="M5.5,5.5 L5.5,15.5 L16.5,15.5 L16.5,5.5 L5.5,5.5 Z M5,4 L17,4 C17.5522847,4 18,4.44771525 18,5 L18,16 C18,16.5522847 17.5522847,17 17,17 L5,17 C4.44771525,17 4,16.5522847 4,16 L4,5 C4,4.44771525 4.44771525,4 5,4 Z" id="Rectangle"></path>
        </g>
        <g id="Group-2"></g>
    </g>
</svg>