<?xml version="1.0" encoding="UTF-8"?>
<svg width="16px" height="15px" viewBox="0 0 16 15" version="1.1" xmlns="http://www.w3.org/2000/svg" xmlns:xlink="http://www.w3.org/1999/xlink">
    <!-- Generator: Sketch 52.6 (67491) - http://www.bohemiancoding.com/sketch -->
    <title>Artboard</title>
    <desc>Created with Sketch.</desc>
    <g id="Artboard" stroke="none" stroke-width="1" fill="none" fill-rule="evenodd">
        <g id="Group" transform="translate(-3.000000, -3.000000)" fill="#000000" fill-rule="nonzero">
            <g id="Cookies" transform="translate(0.000000, 0.500000)">
                <path d="M13.620003,10.4001548 C13.6750461,10.3580795 13.7216843,10.3044185 13.7559983,10.241525 C13.8291778,10.1110227 13.8391666,9.95436299 13.783154,9.81562489 C14.0864034,9.91213721 14.4000601,9.97222918 14.7175103,9.99463369 C14.7141619,9.99487006 14.710801,9.99487006 14.7074526,9.99463369 C15.1719124,9.99463369 15.0260413,11.1246623 14.667881,11.3825404 L13.620003,10.4001548 Z M11.338487,7.62657045 L11,7.94390198 L9.38275043,6.42773051 C9.47187122,6.44194875 9.54175352,6.48796017 9.57804774,6.57536447 C9.36381966,6.05945709 10.9966802,5.73362084 10.9966802,6.29126343 L10.9966802,6.27869258 C11.0322388,6.75131118 11.1499525,7.20638698 11.338487,7.62657045 Z M7.3314793,8.61685986 L8.37507853,9.59523414 C8.32286587,9.63481793 8.27757672,9.68532142 8.2429263,9.74573755 C8.11458386,9.96951419 8.17733899,10.2505695 8.38001859,10.4001346 L7.32990842,11.3846128 C6.97437649,11.1204635 6.83047592,10.0021762 7.29244526,10.0021762 C6.82871715,10.0025939 6.97339856,8.87619322 7.3314793,8.61685986 Z M9.37968987,13.5751388 L11,12.056098 L12.6162407,13.5713236 C12.5275221,13.5570324 12.4579799,13.5110876 12.4218502,13.4239596 C12.6355754,13.9393641 11.0032177,14.2657032 11.0032177,13.7075578 C11.0037206,14.2657032 9.37086002,13.9423811 9.58408234,13.4269766 C9.54668108,13.5170307 9.47324327,13.5628829 9.37968987,13.5751388 Z" id="Combined-Shape"></path>
            </g>
            <path d="M5.5,7.39984802 L5.5,13.600152 L4,15.006402 L4,5.99359802 L5.5,7.39984802 Z M7.85983789,15.5 L14.1401621,15.5 L15.7401621,17 L6.25983789,17 L7.85983789,15.5 Z M16.5,13.600152 L16.5,7.39984802 L18,5.99359802 L18,15.006402 L16.5,13.600152 Z M14.1401621,5.5 L7.85983789,5.5 L6.25983789,4 L15.7401621,4 L14.1401621,5.5 Z" id="Combined-Shape"></path>
        </g>
        <g id="Group-2"></g>
        <g id="Group-3" transform="translate(1.000000, 1.000000)" stroke="#000000" stroke-linecap="round" stroke-linejoin="round" stroke-width="1.5">
            <path d="M0.5,12.5 L13.5,0.5" id="Line"></path>
            <path d="M0.5,12.5 L13.5,0.5" id="Line" transform="translate(7.000000, 6.500000) scale(-1, 1) translate(-7.000000, -6.500000) "></path>
        </g>
    </g>
</svg>